# xmcd CD database file
#
# Track frame offsets:
#	150
#	14545
#	28820
#	38620
#	50532
#	54675
#	64825
#	73850
#	85117
#	98335
#	103992
#	107760
#	115137
#	131385
#	138985
#	149745
#	160160
#	168235
#	176262
#	188125
#	190857
#	202692
#	216652
#
# Disc length: 3020 seconds
#
# Revision: 1
# Processed by: cddbd v1.5.2PL0 Copyright (c) Steve Scherf et al.
# Submitted via: CDex 1.70beta2
#
DISCID=4a0bca17
DTITLE=Nitty Gritty Dirt Band - Uncle Charlie And His Dog Teddy
DYEAR=1970
DGENRE=Country
TTITLE0=Some Of Shelley's Blues
TTITLE1=Prodigal's Return
TTITLE2=The Cure
TTITLE3=Travelin' Mood
TTITLE4=Chicken Reel
TTITLE5=Yukon Railroad
TTITLE6=Living Without You
TTITLE7=Clinch Mountain Backstep
TTITLE8=Rave On
TTITLE9=Billy In The Low Ground
TTITLE10=Jesse James
TTITLE11=Uncle Charlie Interview 
TTITLE12=Mr. Bojangles
TTITLE13=Opus 36
TTITLE14=Santa Rosa
TTITLE15=Propinquity
TTITLE16=Uncle Charlie
TTITLE17=Randy Lynn Rag
TTITLE18=The House At Pooh Corner
TTITLE19=Swanee River
TTITLE20=Uncle Charlie Interview #2 - The End - Spanish Fandango
TTITLE21=Mississippi Rain
TTITLE22=What Goes On
EXTD=YEAR: 1970
EXTT0=
EXTT1=
EXTT2=
EXTT3=
EXTT4=
EXTT5=
EXTT6=
EXTT7=
EXTT8=
EXTT9=
EXTT10=
EXTT11=
EXTT12=
EXTT13=
EXTT14=
EXTT15=
EXTT16=
EXTT17=
EXTT18=
EXTT19=
EXTT20=
EXTT21=
EXTT22=
PLAYORDER=
